<?xml version="1.0" ?><svg data-name="Layer 1" id="Layer_1" viewBox="0 0 272 272" xmlns="http://www.w3.org/2000/svg"><defs><style>.cls-1{fill:#564c4d;}</style></defs><title/><path class="cls-1" d="M264,52H229.83c-.76-1.6-1.58-3.16-2.49-4.67A56,56,0,0,0,126.64,95.5L23.81,198.25l0,0L8,214.14l11.19,11.18,29.28-7.8a128.38,128.38,0,0,0,87.43,16.42V252h8V232.3a126.38,126.38,0,0,0,32-12.28h0v32h8V215.25h0A128.14,128.14,0,0,0,237.69,73ZM199.31,192.59a119.39,119.39,0,0,1-55.4,31.52c-2.64.66-5.31,1.24-8,1.72a120.76,120.76,0,0,1-83.31-15.17l-2.9-1.74-28.11,7.49-2.26-2.27L35.17,198.3l0,0L135.93,97.52l-1.79-4.81a48,48,0,0,1,86.33-41.28c.75,1.25,1.46,2.59,2.13,4L224.77,60h16.41L228.55,70.09,230,75.2A120.14,120.14,0,0,1,199.31,192.59Z"/><path class="cls-1" d="M188.15,48a12,12,0,1,0,12,12A12,12,0,0,0,188.15,48Zm0,16a4,4,0,1,1,4-4A4,4,0,0,1,188.15,64Z"/></svg>